<?xml version="1.0" encoding="utf-8"?>
<!-- Generator: Adobe Illustrator 14.0.0, SVG Export Plug-In  -->
<!DOCTYPE svg PUBLIC "-//W3C//DTD SVG 1.1//EN" "http://www.w3.org/Graphics/SVG/1.1/DTD/svg11.dtd" [
	<!ENTITY ns_flows "http://ns.adobe.com/Flows/1.0/">
]>
<svg version="1.1"
	 xmlns="http://www.w3.org/2000/svg" xmlns:xlink="http://www.w3.org/1999/xlink" xmlns:a="http://ns.adobe.com/AdobeSVGViewerExtensions/3.0/"
	 x="0px" y="0px" width="18px" height="18px" viewBox="0 0 18 18" enable-background="new 0 0 18 18" xml:space="preserve">
<defs>
</defs>
<g>
	<path fill="#FFFFFF" d="M17.5,14.5c0,1.65-1.35,3-3,3h-11c-1.65,0-3-1.35-3-3v-11c0-1.65,1.35-3,3-3h11c1.65,0,3,1.35,3,3V14.5z"/>
	<path fill="none" stroke="#000000" d="M17.5,14.5c0,1.65-1.35,3-3,3h-11c-1.65,0-3-1.35-3-3v-11c0-1.65,1.35-3,3-3h11
		c1.65,0,3,1.35,3,3V14.5z"/>
</g>
<line fill="none" stroke="#000000" stroke-width="2" x1="2.5" y1="6" x2="9.5" y2="6"/>
<line fill="none" stroke="#000000" stroke-width="2" x1="12" y1="15.5" x2="12" y2="8.5"/>
<line fill="none" stroke="#000000" stroke-width="2" x1="6" y1="9.5" x2="6" y2="2.5"/>
<line fill="none" stroke="#000000" stroke-width="2" x1="8.5" y1="12" x2="15.5" y2="12"/>
</svg>
