<?xml version="1.0" standalone="no"?>
<!DOCTYPE svg PUBLIC "-//W3C//DTD SVG 20010904//EN"
 "http://www.w3.org/TR/2001/REC-SVG-20010904/DTD/svg10.dtd">
<svg version="1.0" xmlns="http://www.w3.org/2000/svg"
 width="16.000000pt" height="16.000000pt" viewBox="0 0 16.000000 16.000000"
 preserveAspectRatio="xMidYMid meet">
<metadata>
Created by potrace 1.11, written by Peter Selinger 2001-2013
</metadata>
<g transform="translate(0.000000,16.000000) scale(0.004444,-0.004444)"
fill="#000000" stroke="none">
<path d="M16 3591 c5 -5 63 -57 129 -116 66 -59 120 -111 120 -115 0 -4 -56
-58 -125 -120 -69 -62 -125 -116 -125 -120 0 -4 56 -58 125 -120 69 -62 125
-116 125 -120 0 -4 -56 -58 -125 -120 -69 -62 -125 -116 -125 -120 0 -4 56
-58 125 -120 69 -62 125 -116 125 -120 0 -4 -56 -58 -125 -120 -69 -62 -125
-116 -125 -120 0 -4 56 -58 125 -120 69 -62 125 -116 125 -120 0 -4 -56 -58
-125 -120 -69 -62 -125 -116 -125 -120 0 -4 56 -58 125 -120 69 -62 125 -116
125 -120 0 -4 -56 -58 -125 -120 -69 -62 -126 -115 -127 -119 -2 -3 53 -58
121 -121 68 -63 124 -117 124 -120 0 -3 -56 -57 -124 -120 -68 -63 -124 -117
-124 -120 0 -3 56 -57 124 -120 68 -63 124 -117 124 -120 0 -3 -55 -57 -123
-120 l-124 -115 136 -3 c94 -2 140 1 150 9 8 7 32 43 54 80 22 38 49 75 61 84
20 13 173 15 1388 15 1531 0 1388 8 1436 -78 15 -26 38 -62 51 -79 l24 -33
142 0 142 0 -120 120 -120 120 120 120 120 120 -120 120 -120 120 120 120 120
120 -120 120 -120 120 120 120 120 120 -120 120 -120 120 120 120 120 120
-120 120 -120 120 120 120 120 120 -120 120 -120 120 120 120 120 120 -120
120 -120 120 120 120 120 120 -143 0 -142 0 -26 -37 c-14 -21 -39 -60 -55 -86
-19 -31 -41 -53 -64 -63 -52 -21 -2678 -21 -2730 0 -23 10 -45 32 -64 63 -16
26 -41 65 -55 86 l-26 37 -142 0 c-81 0 -138 -4 -132 -9z m2009 -514 c102 -28
255 -109 255 -135 0 -15 -80 -314 -85 -321 -2 -1 -30 13 -62 33 -98 60 -164
79 -283 80 -98 1 -108 -1 -152 -27 -71 -41 -101 -99 -106 -202 -9 -164 57
-258 258 -369 191 -106 254 -149 326 -221 129 -130 176 -267 177 -515 1 -169
-14 -251 -69 -367 -62 -131 -203 -235 -364 -269 -102 -22 -296 -14 -399 16
-83 24 -201 78 -245 113 l-29 24 32 129 c18 71 36 145 42 165 l9 37 78 -44
c128 -74 172 -86 308 -92 130 -5 172 3 234 43 113 72 133 296 40 437 -42 63
-110 113 -270 198 -74 40 -155 86 -180 103 -120 82 -214 227 -246 377 -20 94
-14 325 11 415 29 105 90 208 163 276 111 104 224 142 402 134 58 -2 128 -11
155 -18z"/>
</g>
</svg>
